<svg width="15" height="14" viewBox="0 0 15 14" fill="none" xmlns="http://www.w3.org/2000/svg">
<path d="M12.972 9.33102C13.4603 9.27885 13.9082 9.03147 14.2173 8.64329C14.5263 8.25511 14.6712 7.75794 14.6199 7.26112V4.15627C14.6199 2.26749 13.8265 0.0164795 10.0423 0.0164795H0.378418V7.26112H3.66414L5.46467 10.04L5.9733 13.3207V13.3828C6.01153 13.5514 6.10369 13.7024 6.23532 13.812C6.36696 13.9215 6.53062 13.9835 6.70063 13.9883H7.49917C7.62757 14.0038 7.75733 14.0038 7.88573 13.9883C8.37404 13.9361 8.82199 13.6887 9.13104 13.3006C9.44009 12.9124 9.58492 12.4152 9.53367 11.9184V9.33102H12.5854C12.7138 9.34654 12.8436 9.34654 12.972 9.33102ZM3.43017 6.22617H1.39567V1.05143H3.43017V6.22617ZM13.6027 7.26112C13.6027 8.00628 13.3178 8.29607 12.5854 8.29607H8.51642V11.9184C8.51642 12.6636 8.23159 12.9533 7.49917 12.9533H6.92443L6.85322 12.4359L6.48192 9.65703L4.44742 6.5884V1.05143H10.0423C12.4735 1.05143 13.6027 2.0398 13.6027 4.15627V7.26112Z" fill="black"/>
</svg>
