<svg width="15" height="14" viewBox="0 0 15 14" fill="none" xmlns="http://www.w3.org/2000/svg">
<path d="M12.7808 5.15642H9.61238V2.81267C9.66559 2.36263 9.51522 1.91227 9.19435 1.56064C8.87349 1.20901 8.40841 0.984926 7.90141 0.937671C7.7681 0.923608 7.63338 0.923608 7.50007 0.937671H6.67099C6.49448 0.941964 6.32456 0.998145 6.18789 1.0974C6.05122 1.19666 5.95554 1.33338 5.91584 1.48611V1.54236L5.38777 4.51423L3.51837 7.03142H0.106995V13.5939H10.1405C14.0694 13.5939 14.8932 11.5549 14.8932 9.84392V7.03142C14.9464 6.58138 14.796 6.13102 14.4751 5.77939C14.1543 5.42776 13.6892 5.20368 13.1822 5.15642C13.0489 5.14236 12.9142 5.14236 12.7808 5.15642ZM3.27546 12.6564H1.16315V7.96892H3.27546V12.6564ZM13.837 9.84392C13.837 11.7611 12.6647 12.6564 10.1405 12.6564H4.33161V7.6408L6.44392 4.86111L6.82942 2.34392L6.90335 1.87517H7.50007C8.26051 1.87517 8.55623 2.13767 8.55623 2.81267V6.09392H12.7808C13.5413 6.09392 13.837 6.35642 13.837 7.03142V9.84392Z" fill="black"/>
</svg>
