<svg width="1920" height="1080" viewBox="0 0 1920 1080" fill="none" xmlns="http://www.w3.org/2000/svg">
<path d="M1919.44 329.298C1901.27 345.516 1817.5 354.569 1755.98 315.449C1679.09 266.548 1662.72 174.082 1649.98 118.868C1639.79 74.6969 1637.58 21.218 1637.74 -1.26537e-05" stroke="#E8E8E8" stroke-width="5" stroke-dasharray="20 20"/>
<path d="M895.925 1080C937.799 1029.69 1058.46 932.943 1206.12 948.405C1353.78 963.868 1420.63 1042.58 1435.59 1080" stroke="#E8E8E8" stroke-width="5" stroke-dasharray="20 20"/>
<path d="M293.531 358.7C353.945 320.504 371.318 243.197 344.2 227.631C300.143 202.342 255.588 304.607 293.531 358.7Z" fill="white"/>
<path d="M-1.89005e-06 197.491C16.6217 244.331 97.7811 357.254 175.366 375.156C326.613 410.054 384.475 250.749 344.2 227.631C299.982 202.249 255.261 305.359 293.952 359.293C324.55 401.945 443.189 471.391 610.516 402.652" stroke="#E8E8E8" stroke-width="5" stroke-dasharray="20 20"/>
</svg>
